<?xml version="1.0" encoding="UTF-8"?>
<!DOCTYPE svg PUBLIC "-//W3C//DTD SVG 1.1//EN" "http://www.w3.org/Graphics/SVG/1.1/DTD/svg11.dtd">
<svg xmlns="http://www.w3.org/2000/svg" version="1.1" width="30px" height="30px" style="shape-rendering:geometricPrecision; text-rendering:geometricPrecision; image-rendering:optimizeQuality; fill-rule:evenodd; clip-rule:evenodd" xmlns:xlink="http://www.w3.org/1999/xlink">
<g><path style="opacity:0.924" fill="#fefffe" d="M 3.5,3.5 C 10.8333,3.5 18.1667,3.5 25.5,3.5C 25.5,10.8333 25.5,18.1667 25.5,25.5C 18.1667,25.5 10.8333,25.5 3.5,25.5C 3.5,18.1667 3.5,10.8333 3.5,3.5 Z M 11.5,7.5 C 15.944,8.11197 19.1106,10.4453 21,14.5C 21.5092,19.1618 19.3425,21.4951 14.5,21.5C 9.84849,21.5152 7.51515,19.1818 7.5,14.5C 7.73431,11.3913 9.06764,9.058 11.5,7.5 Z"/></g>
<g><path style="opacity:0.593" fill="#fefffe" d="M 10.5,10.5 C 18.5,11.5 18.5,12.5 10.5,13.5C 10.5,12.5 10.5,11.5 10.5,10.5 Z"/></g>
<g><path style="opacity:0.642" fill="#fefffe" d="M 10.5,15.5 C 13.1667,15.5 15.8333,15.5 18.5,15.5C 18.5,16.5 18.5,17.5 18.5,18.5C 15.8333,18.5 13.1667,18.5 10.5,18.5C 10.5,17.5 10.5,16.5 10.5,15.5 Z"/></g>
</svg>
