<?xml version="1.0" encoding="UTF-8"?>
<!DOCTYPE svg PUBLIC "-//W3C//DTD SVG 1.1//EN" "http://www.w3.org/Graphics/SVG/1.1/DTD/svg11.dtd">
<svg xmlns="http://www.w3.org/2000/svg" version="1.1" width="50px" height="50px" style="shape-rendering:geometricPrecision; text-rendering:geometricPrecision; image-rendering:optimizeQuality; fill-rule:evenodd; clip-rule:evenodd" xmlns:xlink="http://www.w3.org/1999/xlink">
<g><path style="opacity:0.949" fill="#fefffe" d="M 9.5,4.5 C 12.1667,4.5 14.8333,4.5 17.5,4.5C 17.335,7.8499 17.5017,11.1832 18,14.5C 20.0408,15.4231 22.2075,15.7564 24.5,15.5C 24.5,13.1667 24.5,10.8333 24.5,8.5C 26.8333,8.5 29.1667,8.5 31.5,8.5C 31.5,7.16667 31.5,5.83333 31.5,4.5C 34.1873,4.33591 36.854,4.50258 39.5,5C 41.6667,5.83333 43.1667,7.33333 44,9.5C 44.6667,19.5 44.6667,29.5 44,39.5C 43.1667,41.6667 41.6667,43.1667 39.5,44C 29.5,44.6667 19.5,44.6667 9.5,44C 7.33333,43.1667 5.83333,41.6667 5,39.5C 4.33333,29.5 4.33333,19.5 5,9.5C 6.02496,7.31305 7.52496,5.64638 9.5,4.5 Z M 27.5,10.5 C 30.0009,10.5109 30.1676,11.1776 28,12.5C 27.5357,11.9056 27.369,11.2389 27.5,10.5 Z M 18.5,28.5 C 22.6463,27.353 26.9796,27.1864 31.5,28C 29.236,28.2362 27.0693,28.7362 25,29.5C 22.9592,28.5769 20.7925,28.2436 18.5,28.5 Z"/></g>
</svg>
