<?xml version="1.0" encoding="UTF-8"?>
<!DOCTYPE svg PUBLIC "-//W3C//DTD SVG 1.1//EN" "http://www.w3.org/Graphics/SVG/1.1/DTD/svg11.dtd">
<svg xmlns="http://www.w3.org/2000/svg" version="1.1" width="64px" height="64px" style="shape-rendering:geometricPrecision; text-rendering:geometricPrecision; image-rendering:optimizeQuality; fill-rule:evenodd; clip-rule:evenodd" xmlns:xlink="http://www.w3.org/1999/xlink">
<g><path style="opacity:0.821" fill="#fefffe" d="M 10.5,27.5 C 8.44561,28.6086 6.27894,29.6086 4,30.5C 1.45619,30.1786 0.456187,28.8453 1,26.5C 10.4079,18.5473 19.9079,10.7139 29.5,3C 30.8333,2.33333 32.1667,2.33333 33.5,3C 37,5.83333 40.5,8.66667 44,11.5C 44.49,10.2068 44.6567,8.87344 44.5,7.5C 47.5,7.5 50.5,7.5 53.5,7.5C 53.3345,11.5138 53.5012,15.5138 54,19.5C 56.4794,22.069 59.146,24.4023 62,26.5C 62.2375,29.6497 60.7375,30.8164 57.5,30C 48.6897,23.3572 40.023,16.5239 31.5,9.5C 23.8697,14.8076 16.8697,20.8076 10.5,27.5 Z"/></g>
<g><path style="opacity:0.97" fill="#fefffe" d="M 10.5,27.5 C 16.9383,22.9067 23.2717,18.0734 29.5,13C 30.8333,12.3333 32.1667,12.3333 33.5,13C 40.5709,19.9487 47.7376,26.7821 55,33.5C 55.4997,40.8258 55.6663,48.1591 55.5,55.5C 39.5,55.5 23.5,55.5 7.5,55.5C 7.3336,47.16 7.50027,38.8267 8,30.5C 9.04499,29.6266 9.87833,28.6266 10.5,27.5 Z M 25.5,33.5 C 29.5,33.5 33.5,33.5 37.5,33.5C 37.5,39.5 37.5,45.5 37.5,51.5C 33.5,51.5 29.5,51.5 25.5,51.5C 25.5,45.5 25.5,39.5 25.5,33.5 Z"/></g>
</svg>
