<?xml version="1.0" encoding="UTF-8"?>
<!DOCTYPE svg PUBLIC "-//W3C//DTD SVG 1.1//EN" "http://www.w3.org/Graphics/SVG/1.1/DTD/svg11.dtd">
<svg xmlns="http://www.w3.org/2000/svg" version="1.1" width="50px" height="50px" style="shape-rendering:geometricPrecision; text-rendering:geometricPrecision; image-rendering:optimizeQuality; fill-rule:evenodd; clip-rule:evenodd" xmlns:xlink="http://www.w3.org/1999/xlink">
<g><path style="opacity:0.82" fill="#fefffe" d="M 0.5,-0.5 C 1.83333,-0.5 3.16667,-0.5 4.5,-0.5C 9.64443,6.15781 15.4778,12.4911 22,18.5C 25.5642,16.0776 26.3975,12.9109 24.5,9C 25.5667,4.43724 28.2334,1.27057 32.5,-0.5C 35.5,-0.5 38.5,-0.5 41.5,-0.5C 40.1122,2.67407 38.6122,5.67407 37,8.5C 38.3513,10.019 39.8513,11.3523 41.5,12.5C 43.3159,11.1851 44.9825,9.68511 46.5,8C 47.448,7.51722 48.448,7.35055 49.5,7.5C 49.5,10.1667 49.5,12.8333 49.5,15.5C 47.3704,22.1486 42.8704,24.8153 36,23.5C 30.3567,24.2127 30.19,25.3794 35.5,27C 40.0355,31.7033 44.7021,36.2033 49.5,40.5C 49.5,42.8333 49.5,45.1667 49.5,47.5C 48.5,47.8333 47.8333,48.5 47.5,49.5C 45.1667,49.5 42.8333,49.5 40.5,49.5C 34.7666,43.7718 29.4333,37.7718 24.5,31.5C 23.9688,33.5441 22.8022,35.2107 21,36.5C 20.9134,42.0073 18.7467,46.3406 14.5,49.5C 11.5,49.5 8.5,49.5 5.5,49.5C 3.16667,47.8333 1.16667,45.8333 -0.5,43.5C -0.5,40.5 -0.5,37.5 -0.5,34.5C 2.65941,30.2533 6.99275,28.0866 12.5,28C 14.5,26 16.5,24 18.5,22C 12.4911,15.4778 6.15781,9.64443 -0.5,4.5C -0.5,3.16667 -0.5,1.83333 -0.5,0.5C 0.166667,0.5 0.5,0.166667 0.5,-0.5 Z M 20.5,29.5 C 22.3797,29.2291 23.713,29.8958 24.5,31.5C 22.847,31.3404 21.5137,30.6737 20.5,29.5 Z M 7.5,35.5 C 12.4857,35.3049 14.1524,37.4716 12.5,42C 11.2341,42.3095 10.0674,42.8095 9,43.5C 7.83333,42.3333 6.66667,41.1667 5.5,40C 6.26656,38.5295 6.93323,37.0295 7.5,35.5 Z"/></g>
</svg>
